<svg xmlns="http://www.w3.org/2000/svg" xmlns:xlink="http://www.w3.org/1999/xlink" width="16" height="16" version="1.1" viewBox="0 0 16 16"><g fill="none" fill-rule="evenodd" stroke="none" stroke-width="1"><rect width="16" height="16" x="0" y="0" fill="#FFF" rx="2"/><g fill-rule="nonzero" transform="translate(2.000000, 2.000000)"><polygon fill="#FCBF92" points="12 7.254 6 6.507 0 7.254 6 12"/><polygon fill="#9D5025" points="0 7.254 6 9.066 6 12 0 8.959"/><polygon fill="#F58534" points="12 7.254 6 9.066 6 12 12 8.959"/><polygon fill="#9D5025" points=".775 4.675 0 4.675 0 6.399 .775 6.542 1.636 5.618"/><polygon fill="#F58534" points="1.636 6.47 .775 6.542 .775 4.675 1.636 4.675 1.636 6.47"/><polygon fill="#9D5025" points="2.216 2.525 1.196 2.719 1.196 6.632 2.216 6.845 3.15 4.675"/><polygon fill="#F58534" points="3.15 6.738 2.216 6.845 2.216 2.525 3.15 2.632"/><polygon fill="#9D5025" points="4.205 3.395 2.797 3.538 2.797 6.969 4.205 7.254 5.7 5.315"/><polygon fill="#F58534" points="5.155 7.092 4.205 7.254 4.205 3.395 5.155 3.466 5.155 7.092"/><polygon fill="#9D5025" points="6 .284 5.051 .587 5.051 7.414 6 7.608 6.949 3.946"/><polygon fill="#9D5025" points="6.878 7.092 7.795 7.254 9.203 4.675 7.795 2.116 6.878 2.257 6.878 7.092"/><polyline fill="#9D5025" points="9.203 4.675 7.795 2.116 6.878 2.257"/><polygon fill="#9D5025" points="8.832 6.738 9.784 6.845 10.804 3.591 9.784 .355 8.832 .587"/><polygon fill="#9D5025" points="10.364 6.47 11.225 6.542 12 3.324 11.225 0 10.364 .215"/><path fill="#F58534" d="M6,0.283693675 L6.9492,0.586785209 L6.9492,7.41361891 L6,7.60759749 L6,0.283693675 Z M9.2028,2.40048495 L7.7952,2.1155789 L7.7952,7.25358658 L9.2028,6.96868054 L9.2028,2.40048495 Z M10.8036,0.765003031 L9.7836,0.355223277 L9.7836,6.8450192 L10.8036,6.63164276 L10.8036,0.765003031 Z M12,0.391594261 L11.2248,0 L11.2248,6.54192766 L12,6.39886846 L12,0.391594261 Z"/></g></g></svg>