<svg xmlns="http://www.w3.org/2000/svg" xmlns:xlink="http://www.w3.org/1999/xlink" width="16" height="16" version="1.1" viewBox="0 0 16 16"><g fill="none" fill-rule="evenodd" stroke="none" stroke-width="1"><rect width="16" height="16" x="0" y="0" fill="#FFF" rx="2"/><g fill-rule="nonzero" transform="translate(2.000000, 1.500000)"><polygon fill="#5294CF" points="7.745 13 7.91 13 10.594 11.709 10.638 11.648 10.638 1.351 10.594 1.29 7.91 0 7.744 0"/><polygon fill="#1F5B98" points="4.254 13 4.087 13 1.406 11.709 1.352 11.619 1.325 1.403 1.408 1.29 4.086 0 4.255 0"/><polygon fill="#2D72B8" points="4.091 0 7.907 0 7.907 13 4.091 13"/><polygon fill="#1A476F" points="11.999 6.207 11.908 6.188 10.613 6.072 10.594 6.081 7.907 5.979 4.091 5.979 1.405 6.081 1.405 4.112 1.402 4.113 1.405 4.108 4.091 3.51 7.909 3.51 10.595 4.108 11.582 4.612 11.582 4.287 12 4.243 11.957 4.163 10.636 3.254 10.595 3.267 7.909 2.466 4.091 2.466 1.405 3.267 1.405 1.29 0 2.872 0 4.254 .011 4.246 .418 4.289 .418 4.62 0 4.835 0 6.21 .011 6.209 .418 6.214 .418 6.791 .068 6.796 .001 6.79 .001 8.165 .419 8.381 .419 8.716 .019 8.759 .001 8.746 .001 10.127 1.406 11.709 1.406 9.732 4.093 10.533 7.91 10.533 10.603 9.73 10.638 9.746 11.942 8.852 11.999 8.762 11.581 8.718 11.581 8.39 11.527 8.369 10.634 8.832 10.602 8.897 7.909 9.493 7.909 9.49 4.091 9.49 4.091 9.489 1.405 8.891 1.405 6.915 4.091 7.017 4.091 7.02 7.909 7.02 10.595 6.915 10.656 6.942 11.911 6.838 11.999 6.796 11.581 6.791 11.581 6.214 11.999 6.207"/><path fill="#2D72B8" d="M10.5938028,9.7318 L10.5938028,11.7104 L11.9986479,10.127 L11.9986479,8.7542 L10.6019155,9.7292 L10.5938028,9.7318 Z M10.5938028,8.8959 L10.6019155,8.8946 L11.9986479,8.1718 L11.9986479,6.7912 L10.5938028,6.916 L10.5938028,8.8959 Z M10.6019155,4.1093 L10.5938028,4.108 L10.5938028,6.0814 L11.9986479,6.2075 L11.9986479,4.8282 L10.6019155,4.1093 L10.6019155,4.1093 Z M10.6019155,3.2747 L11.9986479,4.2432 L11.9986479,2.8717 L10.5938028,1.2896 L10.5938028,3.2682 L10.6019155,3.2708 L10.6019155,3.2747 Z"/></g></g></svg>