<svg xmlns="http://www.w3.org/2000/svg" xmlns:xlink="http://www.w3.org/1999/xlink" id="s3_svg__Layer_1" x="0" y="0" version="1.1" viewBox="0 0 512 512" style="enable-background:new 0 0 512 512" xml:space="preserve"><style type="text/css">.s3_svg__st0{fill:#8c3123}.s3_svg__st1{fill:#e05243}.s3_svg__st2{fill:#5e1f18}.s3_svg__st3{fill:#f2b0a9}</style><g id="s3_svg__XMLID_1_"><polyline id="s3_svg__XMLID_2_" points="78.27 88.79 44.19 105.91 44.19 405.39 78.27 422.36 78.55 422.08 78.55 89.07 78.27 88.79" class="s3_svg__st0"/><polyline id="s3_svg__XMLID_3_" points="260.91 378.88 78.27 422.36 78.27 88.79 260.91 131.3 260.91 378.88" class="s3_svg__st1"/><polyline id="s3_svg__XMLID_4_" points="178.57 310.85 256 320.67 256.42 319.54 256.98 192.6 256 191.61 178.57 201.29 178.57 310.85" class="s3_svg__st0"/><polyline id="s3_svg__XMLID_5_" points="256 379.44 433.59 422.51 433.87 422.08 433.87 89.07 433.59 88.79 256 131.86 256 379.44" class="s3_svg__st0"/><polyline id="s3_svg__XMLID_6_" points="333.43 310.85 256 320.67 256 191.61 333.43 201.29 333.43 310.85" class="s3_svg__st1"/><polyline id="s3_svg__XMLID_7_" points="333.43 148.27 256 162.44 178.57 148.27 255.86 128.07 333.43 148.27" class="s3_svg__st2"/><polyline id="s3_svg__XMLID_8_" points="333.43 363.73 256 349.42 178.57 363.73 255.86 385.33 333.43 363.73" class="s3_svg__st3"/><polyline id="s3_svg__XMLID_9_" points="178.57 148.27 256 129.19 256.56 128.91 256.56 .56 256 0 178.57 38.72 178.57 148.27" class="s3_svg__st0"/><polyline id="s3_svg__XMLID_10_" points="333.43 148.27 256 129.19 256 0 333.43 38.72 333.43 148.27" class="s3_svg__st1"/><polyline id="s3_svg__XMLID_11_" points="256 512 178.57 473.28 178.57 363.73 256 382.81 257.12 384.21 256.84 509.76 256 512" class="s3_svg__st0"/><polyline id="s3_svg__XMLID_12_" points="256 512 333.43 473.28 333.43 363.73 256 382.81 256 512" class="s3_svg__st1"/><polyline id="s3_svg__XMLID_13_" points="433.59 88.79 467.81 105.91 467.81 405.39 433.59 422.51 433.59 88.79" class="s3_svg__st1"/></g></svg>