<svg xmlns="http://www.w3.org/2000/svg" xmlns:xlink="http://www.w3.org/1999/xlink" width="160" height="160" version="1.1" viewBox="0 0 160 160"><g fill="none" fill-rule="evenodd" stroke="none" stroke-width="1"><rect width="160" height="160" x="0" y="0"/><g fill="#4965F2" transform="translate(22.000000, 84.000000)"><path fill-rule="nonzero" d="M116,15 L116,47 C116,48.6568542 114.656854,50 113,50 L3,50 C1.34314575,50 -2.41183085e-16,48.6568542 0,47 L0,15 C-2.02906125e-16,13.3431458 1.34314575,12 3,12 L113,12 C114.656854,12 116,13.3431458 116,15 Z"/><rect width="30" height="16" x="15" y="0" rx="3"/><rect width="30" height="16" x="71" y="0" rx="3"/></g><g fill="#37F" transform="translate(22.000000, 32.000000)"><path fill-rule="nonzero" d="M54,12 L54,38 C54,39.6568542 52.6568542,41 51,41 L3,41 C1.34314575,41 1.97926296e-15,39.6568542 0,38 L0,12 C-2.02906125e-16,10.3431458 1.34314575,9 3,9 L51,9 C52.6568542,9 54,10.3431458 54,12 Z"/><rect width="30" height="16" x="12" y="0" rx="3"/></g><g fill="#9ABCFF" transform="translate(117.000000, 46.500000) rotate(15.000000) translate(-117.000000, -46.500000) translate(90.000000, 26.000000)"><path fill-rule="nonzero" d="M54,12 L54,38 C54,39.6568542 52.6568542,41 51,41 L3,41 C1.34314575,41 1.97926296e-15,39.6568542 0,38 L0,12 C-2.02906125e-16,10.3431458 1.34314575,9 3,9 L51,9 C52.6568542,9 54,10.3431458 54,12 Z"/><rect width="30" height="16" x="12" y="0" rx="3"/></g><g stroke="#9ABCFF" stroke-linecap="round" stroke-width="3" transform="translate(79.797490, 12.500000)"><line x1="16.703" x2="16.703" y1="0" y2="6"/><line x1="7.953" x2="7.953" y1="-.067" y2="8.933" transform="translate(7.952510, 4.433013) rotate(-35.000000) translate(-7.952510, -4.433013)"/><line x1="2.507" x2="3.192" y1="7.711" y2="13.672" transform="translate(2.849106, 10.691721) rotate(-61.000000) translate(-2.849106, -10.691721)"/></g></g></svg>