<svg xmlns="http://www.w3.org/2000/svg" xmlns:xlink="http://www.w3.org/1999/xlink" width="48" height="48" version="1.1" viewBox="0 0 48 48"><g fill="none" fill-rule="evenodd" stroke="none" stroke-width="1"><rect width="46.5" height="40.5" x=".75" y="3.75" fill="#FFF" stroke="#D7D9E0" stroke-width="1.5" rx="3"/><g><g transform="translate(6.000000, 8.000000)"><rect width="24" height="7" x="12" y=".5" fill="#D7D9E0" rx="1"/><g><rect width="8" height="8" x="0" y="0" fill="#8B8FA3" rx="1.5"/><g stroke="#FFF" stroke-linecap="round" stroke-width="1.5" transform="translate(2.222222, 2.222222)"><line x1="0" x2="3.556" y1="1.778" y2="1.778"/></g></g></g><g transform="translate(6.000000, 8.000000) translate(7.000000, 12.000000)"><rect width="17" height="7" x="12" y=".5" fill="#D7D9E0" rx="1"/><g><rect width="8" height="8" x="0" y="0" fill="#8B8FA3" rx="1.5"/><g stroke="#FFF" stroke-linecap="round" stroke-width="1.5" transform="translate(2.222222, 2.222222)"><line x1="0" x2="3.556" y1="1.778" y2="1.778"/><line x1="0" x2="3.556" y1="1.778" y2="1.778" transform="translate(1.777778, 1.777778) rotate(90.000000) translate(-1.777778, -1.777778)"/></g></g></g><g transform="translate(6.000000, 8.000000) translate(7.000000, 24.000000)"><rect width="17" height="7" x="12" y=".5" fill="#D7D9E0" rx="1"/><g><rect width="8" height="8" x="0" y="0" fill="#8B8FA3" rx="1.5"/><g stroke="#FFF" stroke-linecap="round" stroke-width="1.5" transform="translate(2.222222, 2.222222)"><line x1="0" x2="3.556" y1="1.778" y2="1.778"/><line x1="0" x2="3.556" y1="1.778" y2="1.778" transform="translate(1.777778, 1.777778) rotate(90.000000) translate(-1.777778, -1.777778)"/></g></g></g><g stroke="#D7D9E0" stroke-linecap="round" stroke-width="2" transform="translate(6.000000, 8.000000) translate(1.500000, 11.500000)"><polyline stroke-linejoin="round" points="0 0 0 16.5 2.5 16.5"/><line x1=".5" x2="2.5" y1="4.5" y2="4.5"/></g></g></g></svg>