<svg xmlns="http://www.w3.org/2000/svg" xmlns:xlink="http://www.w3.org/1999/xlink" width="26" height="13" version="1.1" viewBox="0 0 26 13"><title>icon-query-delete</title><g fill="none" fill-rule="evenodd" stroke="none" stroke-width="1"><g><g><g><g><g><g transform="translate(-120.000000, -843.000000) translate(104.000000, 79.000000) translate(8.000000, 40.000000) translate(8.000000, 630.000000) translate(0.000000, 90.000000) translate(0.000000, 4.000000)"><rect width="25" height="12" x=".5" y=".5" stroke="#ED3C3C" rx="2"/><g fill="#ED3C3C" fill-rule="nonzero" transform="translate(5.948730, 3.989258)"><path d="M0,0 L2.30029297,0 C2.75374349,0 3.12003581,0.0615234375 3.39916992,0.184570312 C3.67830404,0.307617188 3.90901693,0.48421224 4.09130859,0.714355469 C4.27360026,0.944498698 4.40576172,1.21223958 4.48779297,1.51757812 C4.56982422,1.82291667 4.61083984,2.14648438 4.61083984,2.48828125 C4.61083984,3.02376302 4.54988607,3.43904622 4.42797852,3.73413086 C4.30607096,4.02921549 4.13688151,4.27644857 3.92041016,4.47583008 C3.7039388,4.67521159 3.47151693,4.80794271 3.22314453,4.87402344 C2.8836263,4.96516927 2.57600911,5.01074219 2.30029297,5.01074219 L0,5.01074219 L0,0 Z M1.54833984,1.13476562 L1.54833984,3.87255859 L1.92773438,3.87255859 C2.25130208,3.87255859 2.48144531,3.83666992 2.61816406,3.76489258 C2.75488281,3.69311523 2.86197917,3.56778971 2.93945312,3.38891602 C3.01692708,3.21004232 3.05566406,2.92008464 3.05566406,2.51904297 C3.05566406,1.98811849 2.96907552,1.62467448 2.79589844,1.42871094 C2.62272135,1.2327474 2.33561198,1.13476562 1.93457031,1.13476562 L1.54833984,1.13476562 Z"/><polygon points="5.421 0 9.57 0 9.57 1.07 6.973 1.07 6.973 1.866 9.382 1.866 9.382 2.888 6.973 2.888 6.973 3.876 9.646 3.876 9.646 5.011 5.421 5.011"/><polygon points="10.479 0 12.028 0 12.028 3.777 14.444 3.777 14.444 5.011 10.479 5.011"/></g></g></g></g></g></g></g></g></svg>