<svg xmlns="http://www.w3.org/2000/svg" xmlns:xlink="http://www.w3.org/1999/xlink" width="16" height="16" version="1.1" viewBox="0 0 16 16"><g fill="none" fill-rule="evenodd" stroke="none" stroke-linecap="round" stroke-width="1"><g stroke="#8B8FA3" stroke-width="1.5"><g transform="translate(12.000000, 8.000000) scale(-1, 1) translate(-12.000000, -8.000000) translate(9.000000, 3.250000)"><line x1=".5" x2=".5" y1="0" y2="9.5"/><g transform="translate(2.500000, 2.878680)"><line x1="3.5" x2="0" y1="2.121" y2="2.121" transform="translate(1.750000, 2.121320) scale(-1, 1) translate(-1.750000, -2.121320)"/><line x1="2.121" x2="0" y1="2.121" y2="4.243" transform="translate(1.060660, 3.181981) scale(-1, 1) translate(-1.060660, -3.181981)"/><line x1="2.121" x2="0" y1="2.121" y2="0" transform="translate(1.060660, 1.060660) scale(-1, 1) translate(-1.060660, -1.060660)"/></g></g><g transform="translate(1.000000, 3.250000)"><line x1=".5" x2=".5" y1="0" y2="9.5"/><g transform="translate(2.500000, 2.878680)"><line x1="3.5" x2="0" y1="2.121" y2="2.121" transform="translate(1.750000, 2.121320) scale(-1, 1) translate(-1.750000, -2.121320)"/><line x1="2.121" x2="0" y1="2.121" y2="4.243" transform="translate(1.060660, 3.181981) scale(-1, 1) translate(-1.060660, -3.181981)"/><line x1="2.121" x2="0" y1="2.121" y2="0" transform="translate(1.060660, 1.060660) scale(-1, 1) translate(-1.060660, -1.060660)"/></g></g></g></g></svg>