<svg xmlns="http://www.w3.org/2000/svg" xmlns:xlink="http://www.w3.org/1999/xlink" width="40" height="40" version="1.1" viewBox="0 0 40 40"><g fill="none" fill-rule="evenodd" stroke="none" stroke-width="1"><g stroke="#B8B9BF" stroke-width="2" transform="translate(5.555556, 7.777778)"><path stroke-linejoin="round" d="M0,16.6666667 L4.12453266,9.44873451 C4.32235805,9.10254007 4.69051743,8.88888889 5.08924726,8.88888889 L22.7615357,8.88888889 C23.1203702,8.88888889 23.4571156,9.06218409 23.665684,9.35417978 L28.8888889,16.6666667 L28.8888889,16.6666667"/><path stroke-linejoin="round" d="M28.8888889,16.6666667 L28.8888889,22.4444444 C28.8888889,23.5490139 27.9934584,24.4444444 26.8888889,24.4444444 L2,24.4444444 C0.8954305,24.4444444 -3.0881846e-16,23.5490139 0,22.4444444 L0,16.6666667 L10,16.6666667 L10,16.6666667 C10,19.1212656 11.9898456,21.1111111 14.4444444,21.1111111 C16.8990433,21.1111111 18.8888889,19.1212656 18.8888889,16.6666667 L28.8888889,16.6666667 Z"/><line x1="5.489" x2="7.379" y1="2.743" y2="5.072" stroke-linecap="round" transform="translate(6.433725, 3.907423) rotate(-0.941464) translate(-6.433725, -3.907423)"/><line x1="21.447" x2="23.337" y1="2.743" y2="5.072" stroke-linecap="round" transform="translate(22.392134, 3.907423) scale(-1, 1) rotate(-0.941464) translate(-22.392134, -3.907423)"/><line x1="14.444" x2="14.444" y1="0" y2="4.5" stroke-linecap="round"/></g></g></svg>