<svg xmlns="http://www.w3.org/2000/svg" xmlns:xlink="http://www.w3.org/1999/xlink" width="48" height="48" version="1.1" viewBox="0 0 48 48"><g fill="none" fill-rule="evenodd" stroke="none" stroke-width="1"><g transform="translate(2.000000, 4.000000)"><rect width="43" height="15" x=".5" y=".5" fill="#FFF" stroke="#D7D9E0" rx="3"/><g stroke="#8B8FA3" stroke-width="1.5" transform="translate(3.000000, 2.000000)"><circle cx="6" cy="6" r="5.25" fill="#FFF"/><line x1="6" x2="6" y1="3.5" y2="6.5" stroke-linecap="round"/><line x1="7.5" x2="7.5" y1="5" y2="8" stroke-linecap="round" transform="translate(7.500000, 6.500000) rotate(-90.000000) translate(-7.500000, -6.500000)"/></g><rect width="24" height="8" x="17" y="4" fill="#EFEFF0" rx="1"/></g><line x1="24" x2="24" y1="21" y2="27" stroke="#E4E4E5" stroke-linecap="round" stroke-width="2" transform="translate(24.000000, 24.000000) rotate(-90.000000) translate(-24.000000, -24.000000)"/><g transform="translate(1.000000, 28.000000)"><rect width="45" height="15" x=".5" y=".5" fill="#FFF" stroke="#D7D9E0" rx="3"/><g stroke="#8B8FA3" stroke-width="1.5" transform="translate(31.000000, 2.000000)"><circle cx="6" cy="6" r="5.25" fill="#FFF"/><line x1="6" x2="6" y1="3.5" y2="6.5" stroke-linecap="round"/><line x1="7.5" x2="7.5" y1="5" y2="8" stroke-linecap="round" transform="translate(7.500000, 6.500000) rotate(-90.000000) translate(-7.500000, -6.500000)"/></g><rect width="24" height="8" x="4" y="4" fill="#EFEFF0" rx="1"/></g></g></svg>