<svg xmlns="http://www.w3.org/2000/svg" width="120" height="120" version="1.1" viewBox="0 0 120 120"><defs><linearGradient id="icon-application-empty_svg__a" x1="50%" x2="21.875%" y1="56.365%" y2="100%"><stop offset="0%" stop-color="#F3F7FE"/><stop offset="100%" stop-color="#E2ECFE"/></linearGradient><linearGradient id="icon-application-empty_svg__b" x1="50%" x2="0%" y1="50%" y2="100%"><stop offset="0%" stop-color="#E3F1FF"/><stop offset="100%" stop-color="#B2CCFF"/></linearGradient></defs><g fill="none" fill-rule="evenodd" stroke="none" stroke-width="1"><g><path fill="url(#icon-application-empty_svg__a)" d="M8,0 L49,0 C51.209139,-4.05812251e-16 53,1.790861 53,4 L53,34 C53,37.3137085 55.6862915,40 59,40 L86,40 C88.209139,40 90,41.790861 90,44 L90,112 C90,116.418278 86.418278,120 82,120 L8,120 C3.581722,120 2.31743984e-15,116.418278 0,112 L0,8 C-5.41083001e-16,3.581722 3.581722,-1.85291076e-15 8,0 Z" transform="translate(15.000000, 0.000000)"/><path fill="url(#icon-application-empty_svg__b)" d="M62.4142136,3.41421356 L89.5857864,30.5857864 C90.366835,31.366835 90.366835,32.633165 89.5857864,33.4142136 C89.2107137,33.7892863 88.7020059,34 88.1715729,34 L65,34 C61.6862915,34 59,31.3137085 59,28 L59,4.82842712 C59,3.72385763 59.8954305,2.82842712 61,2.82842712 C61.530433,2.82842712 62.0391408,3.03914081 62.4142136,3.41421356 Z" transform="translate(15.000000, 0.000000)"/></g></g></svg>