<svg xmlns="http://www.w3.org/2000/svg" xmlns:xlink="http://www.w3.org/1999/xlink" width="48" height="48" version="1.1" viewBox="0 0 48 48"><g fill="none" fill-rule="evenodd" stroke="none" stroke-width="1"><g transform="translate(6.000000, 19.000000)"><rect width="40" height="26" x=".5" y=".5" fill="#FFF" stroke="#D7D9E0" rx="3"/><g transform="translate(4.000000, 3.000000)"><rect width="6" height="5" x="0" y="0" fill="#F5F5F6" rx="1"/><rect width="25" height="5" x="8" y="0" fill="#37F" opacity=".2" rx="1"/><rect width="6" height="5" x="8" y="0" fill="#37F" rx="1"/></g><g transform="translate(4.000000, 11.000000)"><rect width="6" height="5" x="27" y="0" fill="#F5F5F6" rx="1"/><rect width="25" height="5" x="0" y="0" fill="#37F" opacity=".2" rx="1"/><rect width="6" height="5" x="19" y="0" fill="#37F" rx="1"/></g><rect width="33" height="5" x="4" y="19" fill="#F5F5F6" rx="1"/></g><g transform="translate(1.000000, 2.000000)"><rect width="45" height="17" x=".5" y=".5" fill="#FFF" stroke="#D7D9E0" rx="3"/><g stroke="#8B8FA3" stroke-width="1.5" transform="translate(4.000000, 3.000000)"><rect width="9.5" height="9.5" x="1.25" y="1.75" fill="#FFF" rx="2.5"/><line x1="1.5" x2="10.5" y1="5" y2="5" stroke-linecap="square"/><g stroke-linecap="round" transform="translate(3.500000, 0.500000)"><line x1=".5" x2=".5" y1="0" y2="2"/><line x1="4.5" x2="4.5" y1="0" y2="2"/></g></g><rect width="23" height="8" x="19" y="5" fill="#EFEFF0" rx="1"/></g></g></svg>