<svg xmlns="http://www.w3.org/2000/svg" xmlns:xlink="http://www.w3.org/1999/xlink" width="16" height="16" version="1.1" viewBox="0 0 16 16"><g fill="none" fill-rule="evenodd" stroke="none" stroke-width="1"><g><rect width="16" height="16" x="0" y="0"/><g stroke="#4965F2" stroke-width="1.2"><path d="M8.21509955,0.6 L12.7807493,4.93724622 L12.9,14 C12.9,14.3865993 12.7432997,14.7365993 12.4899495,14.9899495 C12.2365993,15.2432997 11.8865993,15.4 11.5,15.4 L11.5,15.4 L2,15.4 C1.61340068,15.4 1.26340068,15.2432997 1.01005051,14.9899495 C0.756700338,14.7365993 0.6,14.3865993 0.6,14 L0.6,14 L0.6,2 C0.6,1.61340068 0.756700338,1.26340068 1.01005051,1.01005051 C1.26340068,0.756700338 1.61340068,0.6 2,0.6 L2,0.6 L8.21509955,0.6 Z" transform="translate(1.250000, 0.000000)"/><g stroke-linecap="round" transform="translate(1.250000, 0.000000) translate(3.283333, 8.000000)"><polyline stroke-linejoin="round" points="0 0 2 1.5 0 3"/><line x1="4" x2="6.5" y1="3" y2="3"/></g><path stroke-linecap="round" stroke-linejoin="round" d="M7.75,1 L7.75,5 C7.75,5.55228475 8.19771525,6 8.75,6 L12.25,6 L12.25,6" transform="translate(1.250000, 0.000000)"/></g></g></g></svg>