<svg xmlns="http://www.w3.org/2000/svg" xmlns:xlink="http://www.w3.org/1999/xlink" width="48" height="48" version="1.1" viewBox="0 0 48 48"><g fill="none" fill-rule="evenodd" stroke="none" stroke-width="1"><g><rect width="46.5" height="40.5" x=".75" y="3.75" fill="#FFF" stroke="#D7D9E0" stroke-width="1.5" rx="3"/><g transform="translate(5.000000, 9.000000)"><rect width="9" height="6" x="8" y="0" fill="#EFEFF0" rx="1"/><rect width="6" height="6" x="0" y="0" fill="#D7D9E0" rx="1"/></g><g transform="translate(5.000000, 21.000000)"><rect width="9" height="6" x="8" y="0" fill="#EFEFF0" rx="1"/><rect width="6" height="6" x="0" y="0" fill="#D7D9E0" rx="1"/></g><g transform="translate(5.000000, 33.000000)"><rect width="9" height="6" x="8" y="0" fill="#EFEFF0" rx="1"/><rect width="6" height="6" x="0" y="0" fill="#D7D9E0" rx="1"/></g><g transform="translate(26.000000, 9.000000)"><rect width="9" height="6" x="8" y="0" fill="#EFEFF0" rx="1"/><rect width="6" height="6" x="0" y="0" fill="#D7D9E0" rx="1"/></g><g transform="translate(26.000000, 21.000000)"><rect width="9" height="6" x="8" y="0" fill="#EFEFF0" rx="1"/><rect width="6" height="6" x="0" y="0" fill="#D7D9E0" rx="1"/></g><g transform="translate(26.000000, 33.000000)"><rect width="9" height="6" x="8" y="0" fill="#EFEFF0" rx="1"/><rect width="6" height="6" x="0" y="0" fill="#D7D9E0" rx="1"/></g></g></g></svg>