<svg xmlns="http://www.w3.org/2000/svg" xmlns:xlink="http://www.w3.org/1999/xlink" width="20" height="20" version="1.1" viewBox="0 0 20 20"><g fill="none" fill-rule="evenodd" stroke="none" stroke-width="1"><rect width="20" height="20" x="0" y="0"/><g transform="translate(2.000000, 0.000000)"><path fill="#2693FF" d="M2,0 L10,0 L10,0 L16,6.00453385 L16,18 C16,19.1045695 15.1045695,20 14,20 L2,20 C0.8954305,20 1.3527075e-16,19.1045695 0,18 L0,2 C-1.3527075e-16,0.8954305 0.8954305,-1.91384796e-17 2,0 Z"/><path fill="#FFF" fill-rule="nonzero" d="M2.6082788,11.0504783 L4.08401723,11.3191716 L3.703,13.41 L5.95248441,13.1717588 L6.1108332,14.6633773 L2.99789853,14.9938434 L2.87658117,14.9980059 C2.84633235,14.996881 2.81619091,14.9928689 2.75590801,14.9848447 C2.32958576,14.9072226 2.03585884,14.5241493 2.05933225,14.1024174 L2.07191577,13.9963334 L2.6082788,11.0504783 Z" transform="translate(4.084427, 13.024242) scale(-1, 1) rotate(45.000000) translate(-4.084427, -13.024242)"/><polygon fill="#FFF" fill-rule="nonzero" points="12.833 14.917 12.833 16.417 7.583 16.417 7.583 14.917"/><path fill="#EEE" d="M10,0 L16,6 L11,6 C10.4477153,6 10,5.55228475 10,5 L10,0 L10,0 Z"/></g></g></svg>