<svg xmlns="http://www.w3.org/2000/svg" xmlns:xlink="http://www.w3.org/1999/xlink" width="16" height="16" version="1.1" viewBox="0 0 16 16"><g fill="none" fill-rule="evenodd" stroke="none" stroke-width="1"><g fill="#D85BAF" fill-rule="nonzero" transform="translate(1.500000, 0.500000)"><polygon points=".647 11.114 1.183 11.432 7.157 .808 6.621 .49"/><polygon points="12.472 10.265 .525 10.265 .525 10.901 12.472 10.901"/><polygon points=".761 10.623 6.737 14.166 7.046 13.615 1.071 10.072"/><polygon points="5.952 1.388 11.928 4.931 12.238 4.38 6.262 .837"/><polygon points=".762 4.379 1.072 4.929 7.048 1.386 6.738 .835"/><polygon points="5.844 .808 11.818 11.433 12.354 11.115 6.38 .491"/><polygon points="1.617 3.957 .998 3.957 .998 11.043 1.617 11.043"/><polygon points="12.002 3.957 11.383 3.957 11.383 11.043 12.002 11.043"/><polygon points="6.361 13.416 6.631 13.898 11.829 10.816 11.559 10.335"/><path d="M12.8222598,11.2497201 C12.4641732,11.8894022 11.6659386,12.1077368 11.0430172,11.7400154 C10.4200958,11.372294 10.2074819,10.5525816 10.5655684,9.9128995 C10.923655,9.27320784 11.7218896,9.05487323 12.344811,9.42260425 C12.9715557,9.79415611 13.1841696,10.6100381 12.8222598,11.2497201 Z"/><path d="M2.43052265,5.08603852 C2.0724361,5.7257206 1.27419216,5.94405521 0.651270758,5.57633377 C0.0283493549,5.20861233 -0.184260807,4.38889996 0.173822018,3.74922745 C0.531908573,3.10954537 1.33014318,2.89121076 1.95306459,3.2589322 C2.57599532,3.63048407 2.78860921,4.44635643 2.43052265,5.08603852 Z"/><path d="M0.17746816,11.2497201 C-0.180618395,10.6100381 0.0319954967,9.79415611 0.6549169,9.42260425 C1.2778383,9.05487323 2.07234285,9.27320784 2.43415947,9.9128995 C2.79224602,10.5525816 2.57963213,11.3684635 1.95671073,11.7400154 C1.33005926,12.1077368 0.535554715,11.8894022 0.17746816,11.2497201 Z"/><path d="M10.569485,5.08603852 C10.2113985,4.44635643 10.4240124,3.63048407 11.0469338,3.2589322 C11.6698552,2.89121076 12.4643597,3.10954537 12.8261763,3.74922745 C13.1842629,4.38889996 12.971649,5.2047819 12.3487276,5.57633377 C11.7258062,5.94405521 10.9275716,5.7257206 10.569485,5.08603852 Z"/><path d="M6.50007377,15 C5.78017059,15 5.19827994,14.4024527 5.19827994,13.6631794 C5.19827994,12.923906 5.78017059,12.3263587 6.50007377,12.3263587 C7.21997695,12.3263587 7.8018676,12.923906 7.8018676,13.6631794 C7.8018676,14.3986222 7.21997695,15 6.50007377,15 Z"/><path d="M6.50007377,2.67364224 C5.78017059,2.67364224 5.19827994,2.07609491 5.19827994,1.3368216 C5.19827994,0.597547336 5.78017059,-2.1263167e-16 6.50007377,-2.1263167e-16 C7.21997695,-2.1263167e-16 7.8018676,0.597547336 7.8018676,1.3368216 C7.8018676,2.07609491 7.21997695,2.67364224 6.50007377,2.67364224 Z"/></g></g></svg>