<svg xmlns="http://www.w3.org/2000/svg" width="16" height="16" version="1.1" viewBox="0 0 16 16"><defs><linearGradient id="icon-query-MongoDB_svg__a" x1="46.474%" x2="53.125%" y1="43.839%" y2="55.75%"><stop offset="23.1%" stop-color="#999875"/><stop offset="56.3%" stop-color="#9B9977"/><stop offset="68.3%" stop-color="#A09F7E"/><stop offset="76.8%" stop-color="#A9A889"/><stop offset="83.7%" stop-color="#B7B69A"/><stop offset="89.6%" stop-color="#C9C7B0"/><stop offset="94.8%" stop-color="#DEDDCB"/><stop offset="99.4%" stop-color="#F8F6EB"/><stop offset="100%" stop-color="#FBF9EF"/></linearGradient><linearGradient id="icon-query-MongoDB_svg__b" x1="44.132%" x2="52.292%" y1="-.532%" y2="96.234%"><stop offset="0%" stop-color="#48A547"/><stop offset="100%" stop-color="#3F9143"/></linearGradient><linearGradient id="icon-query-MongoDB_svg__c" x1="44.947%" x2="59.104%" y1="55.985%" y2="46.199%"><stop offset="0%" stop-color="#41A247"/><stop offset="35.2%" stop-color="#4BA74B"/><stop offset="95.6%" stop-color="#67B554"/><stop offset="100%" stop-color="#69B655"/></linearGradient></defs><g fill="none" fill-rule="evenodd" stroke="none" stroke-width="1"><rect width="16" height="16" x="0" y="0" fill="#FFF" rx="2"/><g fill-rule="nonzero"><path fill="url(#icon-query-MongoDB_svg__a)" d="M4.39322975,16 L3.91609036,15.8577143 C3.91609036,15.8577143 3.97962424,13.6862857 3.10603349,13.5337143 C2.53422863,12.9348571 3.19053354,-12.0325714 5.28079795,13.4485714 C4.88420786,13.6295034 4.58075141,13.9413369 4.43389143,14.3188571 C4.35518025,14.8764286 4.34155216,15.4398774 4.39322975,16 L4.39322975,16 Z" transform="translate(4.000000, 0.000000)"/><path fill="url(#icon-query-MongoDB_svg__b)" d="M4.65117727,13.9022857 C7.24424953,12.1466427 8.48095185,9.20461017 7.8278709,6.34514286 C6.89392298,2.63942857 4.68230887,1.42114286 4.44405685,0.956 C4.2384962,0.666359905 4.06303678,0.360305004 3.9199024,0.0417142857 L4.09589122,10.3668571 C4.09589122,10.3668571 3.73120679,13.5222857 4.65117727,13.9022857 Z" transform="translate(4.000000, 0.000000)"/><path fill="url(#icon-query-MongoDB_svg__c)" d="M3.67339097,14.0394286 C3.67339097,14.0394286 -0.215517375,11.6571429 0.00939253428,7.44285714 C0.0518424581,4.8722754 1.33086614,2.44440122 3.51582697,0.786857143 C3.77150768,0.591487076 3.91361011,0.301550241 3.90147757,0 C4.14354163,0.468571429 4.10415063,6.996 4.12956418,7.75942857 C4.22804168,10.7291429 3.94595128,13.4788571 3.67339097,14.0394286 Z" transform="translate(4.000000, 0.000000)"/></g></g></svg>