<svg xmlns="http://www.w3.org/2000/svg" xmlns:xlink="http://www.w3.org/1999/xlink" width="48" height="48" version="1.1" viewBox="0 0 48 48"><g fill="none" fill-rule="evenodd" stroke="none" stroke-width="1"><g transform="translate(2.000000, 1.000000)"><rect width="43" height="13" x=".5" y=".5" fill="#FFF" stroke="#D7D9E0" rx="3"/><rect width="24" height="6" x="5" y="4" fill="#EFEFF0" rx="1"/><path fill="#8B8FA3" fill-rule="nonzero" d="M34.4696699,5.46966991 C34.7359365,5.20340335 35.1526002,5.1791973 35.4462117,5.39705176 L35.5303301,5.46966991 L38.5303301,8.46966991 C38.8232233,8.76256313 38.8232233,9.23743687 38.5303301,9.53033009 C38.2640635,9.79659665 37.8473998,9.8208027 37.5537883,9.60294824 L37.4696699,9.53033009 L35,7.061 L32.5303301,9.53033009 C32.2640635,9.79659665 31.8473998,9.8208027 31.5537883,9.60294824 L31.4696699,9.53033009 C31.2034034,9.26406352 31.1791973,8.84739984 31.3970518,8.55378835 L31.4696699,8.46966991 L34.4696699,5.46966991 Z" transform="translate(35.000000, 7.500000) scale(1, -1) translate(-35.000000, -7.500000)"/></g><g transform="translate(2.000000, 14.000000)"><rect width="43" height="32" x=".5" y=".5" fill="#FFF" stroke="#D7D9E0" rx="3"/><rect width="26" height="5" x="13" y="5" fill="#D7D9E0" rx="1"/><rect width="26" height="5" x="13" y="14" fill="#D7D9E0" rx="1"/><polyline stroke="#8B8FA3" stroke-linecap="round" stroke-linejoin="round" stroke-width="1.5" points="5.5 14.5 7.999 16.5 5.5 18.5"/><rect width="17" height="5" x="13" y="23" fill="#D7D9E0" rx="1"/><path fill="#37F" fill-rule="nonzero" d="M37.5775907,23.2111315 C37.8751999,22.9230315 38.3500111,22.9307401 38.6381111,23.2283493 C38.9000203,23.4989031 38.9174594,23.9159048 38.6948675,24.2059412 L38.6208934,24.2888697 L35.7716513,27.0470737 C35.504198,27.3059814 35.0929039,27.3263773 34.8028003,27.1104127 L34.7196699,27.0385347 L33.2196699,25.5385347 C32.9267767,25.2456414 32.9267767,24.7707677 33.2196699,24.4778745 C33.4859365,24.2116079 33.9026002,24.1874019 34.1962117,24.4052563 L34.2803301,24.4778745 L35.258,25.4552046 L37.5775907,23.2111315 Z"/><polyline stroke="#8B8FA3" stroke-linecap="round" stroke-linejoin="round" stroke-width="1.5" points="5.5 5.5 8 7.5 5.5 9.5"/></g></g></svg>