<svg xmlns="http://www.w3.org/2000/svg" xmlns:xlink="http://www.w3.org/1999/xlink" width="16" height="16" version="1.1" viewBox="0 0 16 16"><g fill="none" fill-rule="evenodd" stroke="none" stroke-width="1"><rect width="16" height="16" x="0" y="0"/><g stroke="#222" stroke-linecap="round" stroke-width="1.5" transform="translate(3.000000, 3.500000)"><g><path d="M2.1545232,1.77927881 C3.33152123,1.99933166 4.35069841,2.55488722 5.21205473,3.44594548 C6.07341105,4.33700374 6.67550811,5.56296062 7.01834591,7.12381613" transform="translate(6.490827, 3.561908) scale(1, -1) translate(-6.490827, -3.561908) translate(2.981654, 0.000000) translate(4.586435, 4.451547) scale(-1, -1) translate(-4.586435, -4.451547)"/><g transform="translate(6.490827, 3.561908) scale(1, -1) translate(-6.490827, -3.561908) translate(2.981654, 0.000000) translate(2.012121, 2.044180) rotate(20.000000) translate(-2.012121, -2.044180) translate(0.456566, 0.434985)"><line x1=".778" x2=".778" y1=".805" y2="3.218"/><line x1=".778" x2="3.111" y1=".805" y2=".805"/></g></g><polyline stroke-linejoin="round" points="9.667 7.241 9.667 10 0 10 0 0 3.333 0"/></g></g></svg>