<svg xmlns="http://www.w3.org/2000/svg" xmlns:xlink="http://www.w3.org/1999/xlink" width="48" height="48" version="1.1" viewBox="0 0 48 48"><g fill="none" fill-rule="evenodd" stroke="none" stroke-width="1"><g transform="translate(0.000000, 16.000000)"><rect width="47" height="15" x=".5" y=".5" fill="#F9F9FA" stroke="#D7D9E0" rx="2"/><g fill="#37F" fill-rule="nonzero"><path d="M1.5,1 L0,1 L0,0 L4,0 L4,1 L2.5,1 L2.5,8 L4,8 L4,9 L0,9 L0,8 L1.5,8 L1.5,1 Z" transform="translate(38.000000, 3.500000)"/></g><polygon fill="#8B8FA3" fill-rule="nonzero" points="9.588 6.531 10 7.85 8.134 8.434 9.352 10.195 8.231 11 7.013 9.336 5.761 11 4.639 10.195 5.866 8.434 4 7.85 4.412 6.531 6.242 7.133 6.242 5 7.758 5 7.758 7.133"/><polygon fill="#8B8FA3" fill-rule="nonzero" points="17.588 6.531 18 7.85 16.134 8.434 17.352 10.195 16.231 11 15.013 9.336 13.761 11 12.639 10.195 13.866 8.434 12 7.85 12.412 6.531 14.242 7.133 14.242 5 15.758 5 15.758 7.133"/><polygon fill="#8B8FA3" fill-rule="nonzero" points="25.588 6.531 26 7.85 24.134 8.434 25.352 10.195 24.231 11 23.013 9.336 21.761 11 20.639 10.195 21.866 8.434 20 7.85 20.412 6.531 22.242 7.133 22.242 5 23.758 5 23.758 7.133"/><polygon fill="#8B8FA3" fill-rule="nonzero" points="33.588 6.531 34 7.85 32.134 8.434 33.352 10.195 32.231 11 31.013 9.336 29.761 11 28.639 10.195 29.866 8.434 28 7.85 28.412 6.531 30.242 7.133 30.242 5 31.758 5 31.758 7.133"/></g></g></svg>