<svg xmlns="http://www.w3.org/2000/svg" xmlns:xlink="http://www.w3.org/1999/xlink" width="48" height="48" version="1.1" viewBox="0 0 48 48"><g fill="none" fill-rule="evenodd" stroke="none" stroke-width="1"><g transform="translate(6.000000, 6.000000)"><path stroke="#D7D9E0" stroke-linecap="round" stroke-width="3" d="M0,11 L0,4 C0,1.790861 1.790861,0 4,0 L11,0"/><path stroke="#D7D9E0" stroke-linecap="round" stroke-width="3" d="M25,11 L25,4 C25,1.790861 26.790861,0 29,0 L36,0" transform="translate(30.500000, 5.500000) scale(-1, 1) translate(-30.500000, -5.500000)"/><path stroke="#D7D9E0" stroke-linecap="round" stroke-width="3" d="M0,36 L0,29 C0,26.790861 1.790861,25 4,25 L11,25" transform="translate(5.500000, 30.500000) scale(1, -1) translate(-5.500000, -30.500000)"/><path stroke="#D7D9E0" stroke-linecap="round" stroke-width="3" d="M25,36 L25,29 C25,26.790861 26.790861,25 29,25 L36,25" transform="translate(30.500000, 30.500000) scale(-1, -1) translate(-30.500000, -30.500000)"/><rect width="36" height="3" x="0" y="16.5" fill="#37F" rx="1.5"/></g></g></svg>