<svg xmlns="http://www.w3.org/2000/svg" xmlns:xlink="http://www.w3.org/1999/xlink" width="16" height="16" version="1.1" viewBox="0 0 16 16"><g fill="none" fill-rule="evenodd" stroke="none" stroke-width="1"><rect width="10" height="3.2" x="6" y="1" fill="#FFF" rx=".5"/><path fill="#FFF" d="M1.73194792e-14,0.783217207 L1.73194792e-14,4.21678279 C1.71890728e-14,4.4376967 0.179086103,4.6167828 0.400000006,4.6167828 C0.484213914,4.6167828 0.566279546,4.5902036 0.634503278,4.54083251 L3.00684962,2.82404972 C3.18581734,2.69453714 3.22590865,2.44446445 3.09639607,2.26549673 C3.07149158,2.23108232 3.04126403,2.20085477 3.00684962,2.17595028 L0.634503278,0.459167488 C0.455535561,0.329654907 0.205462869,0.369746216 0.0759502876,0.548713934 C0.0265791956,0.616937666 1.7309166e-14,0.699003298 1.73194792e-14,0.783217207 Z"/><path fill="#FFF" d="M1.73194792e-14,11.7832172 L1.73194792e-14,15.2167828 C1.71890728e-14,15.4376967 0.179086103,15.6167828 0.400000006,15.6167828 C0.484213914,15.6167828 0.566279546,15.5902036 0.634503278,15.5408325 L3.00684962,13.8240497 C3.18581734,13.6945371 3.22590865,13.4444644 3.09639607,13.2654967 C3.07149158,13.2310823 3.04126403,13.2008548 3.00684962,13.1759503 L0.634503278,11.4591675 C0.455535561,11.3296549 0.205462869,11.3697462 0.0759502876,11.5487139 C0.0265791956,11.6169377 1.7309166e-14,11.6990033 1.73194792e-14,11.7832172 Z"/><rect width="10" height="3.2" x="6" y="12" fill="#FFF" rx=".5"/><rect width="10" height="3.2" x="6" y="6.5" fill="#FFF" rx=".5"/></g></svg>