<svg xmlns="http://www.w3.org/2000/svg" xmlns:xlink="http://www.w3.org/1999/xlink" width="26" height="13" version="1.1" viewBox="0 0 26 13"><title>icon-query-head</title><g fill="none" fill-rule="evenodd" stroke="none" stroke-width="1"><g><g><g><g><g><g transform="translate(-120.000000, -1056.000000) translate(104.000000, 52.000000) translate(8.000000, 40.000000) translate(8.000000, 810.000000) translate(0.000000, 150.000000) translate(0.000000, 4.000000)"><rect width="25" height="12" x=".5" y=".5" stroke="#8B8FA3" rx="2"/><g fill="#8B8FA3" fill-rule="nonzero" transform="translate(4.112793, 4.205078)"><polygon points="0 0 1.327 0 1.327 1.503 2.777 1.503 2.777 0 4.11 0 4.11 4.295 2.777 4.295 2.777 2.558 1.327 2.558 1.327 4.295 0 4.295"/><polygon points="4.989 0 8.546 0 8.546 .917 6.319 .917 6.319 1.6 8.385 1.6 8.385 2.476 6.319 2.476 6.319 3.322 8.61 3.322 8.61 4.295 4.989 4.295"/><path d="M11.9677734,3.5859375 L10.4560547,3.5859375 L10.2480469,4.29492188 L8.89160156,4.29492188 L10.5058594,0 L11.953125,0 L13.5673828,4.29492188 L12.1787109,4.29492188 L11.9677734,3.5859375 Z M11.6894531,2.65722656 L11.2148438,1.11328125 L10.7431641,2.65722656 L11.6894531,2.65722656 Z"/><path d="M14.0097656,0 L15.9814453,0 C16.3701172,0 16.684082,0.052734375 16.9233398,0.158203125 C17.1625977,0.263671875 17.3603516,0.415039062 17.5166016,0.612304688 C17.6728516,0.809570312 17.7861328,1.0390625 17.8564453,1.30078125 C17.9267578,1.5625 17.9619141,1.83984375 17.9619141,2.1328125 C17.9619141,2.59179688 17.909668,2.94775391 17.8051758,3.20068359 C17.7006836,3.45361328 17.5556641,3.66552734 17.3701172,3.83642578 C17.1845703,4.00732422 16.9853516,4.12109375 16.7724609,4.17773438 C16.4814453,4.25585938 16.2177734,4.29492188 15.9814453,4.29492188 L14.0097656,4.29492188 L14.0097656,0 Z M15.3369141,0.97265625 L15.3369141,3.31933594 L15.6621094,3.31933594 C15.9394531,3.31933594 16.1367188,3.28857422 16.2539062,3.22705078 C16.3710938,3.16552734 16.4628906,3.05810547 16.5292969,2.90478516 C16.5957031,2.75146484 16.6289062,2.50292969 16.6289062,2.15917969 C16.6289062,1.70410156 16.5546875,1.39257812 16.40625,1.22460938 C16.2578125,1.05664062 16.0117188,0.97265625 15.6679688,0.97265625 L15.3369141,0.97265625 Z"/></g></g></g></g></g></g></g></g></svg>