<svg xmlns="http://www.w3.org/2000/svg" xmlns:xlink="http://www.w3.org/1999/xlink" width="48" height="48" version="1.1" viewBox="0 0 48 48"><g fill="none" fill-rule="evenodd" stroke="none" stroke-width="1"><g transform="translate(1.000000, 3.000000)"><rect width="44.5" height="40.5" x=".75" y=".75" fill="#EFEFF0" stroke="#D7D9E0" stroke-width="1.5" rx="3"/><g transform="translate(17.000000, 0.000000)"><path fill="#FFF" stroke="#D7D9E0" stroke-width="1.5" d="M26,0.75 C26.6213203,0.75 27.1838203,1.00183983 27.5909903,1.40900974 C27.9981602,1.81617966 28.25,2.37867966 28.25,3 L28.25,3 L28.25,39 C28.25,39.6213203 27.9981602,40.1838203 27.5909903,40.5909903 C27.1838203,40.9981602 26.6213203,41.25 26,41.25 L26,41.25 L0.75,41.25 L0.75,0.75 Z"/><line x1="1" x2="28" y1="13" y2="13" stroke="#D7D9E0" stroke-linecap="round" stroke-width="1.5"/><rect width="7" height="4" x="17" y="5" fill="#37F" rx="1"/><g stroke="#8B8FA3" stroke-linecap="round" stroke-linejoin="round" transform="translate(5.000000, 4.000000)"><line x1="4.219" x2=".781" y1=".781" y2="4.219"/><line x1="4.219" x2=".781" y1=".781" y2="4.219" transform="translate(2.500000, 2.500000) scale(-1, 1) translate(-2.500000, -2.500000)"/></g><rect width="19" height="4" x="5" y="17" fill="#D7D9E0" rx="1"/><rect width="16" height="4" x="5" y="33" fill="#D7D9E0" rx="1"/><rect width="12" height="4" x="5" y="25" fill="#D7D9E0" rx="1"/></g></g></g></svg>