<svg xmlns="http://www.w3.org/2000/svg" xmlns:xlink="http://www.w3.org/1999/xlink" width="28" height="28" version="1.1" viewBox="0 0 28 28"><g fill="none" fill-rule="evenodd" stroke="none" stroke-width="1"><g><rect width="28" height="28" x="0" y="0"/><g><path fill="#813AEB" d="M2,0 L13.8541667,0 L13.8541667,0 L22.1666667,8.40634739 L22.1666667,26 C22.1666667,27.1045695 21.2712362,28 20.1666667,28 L2,28 C0.8954305,28 2.09738034e-15,27.1045695 0,26 L0,2 C-1.3527075e-16,0.8954305 0.8954305,-9.07316899e-16 2,0 Z" transform="translate(3.000000, 0.000000)"/><g fill="#FFF" transform="translate(3.000000, 0.000000) translate(3.000000, 14.000000)"><path fill-rule="nonzero" d="M12,8.5 L12,9.5 C12,9.77614237 11.7761424,10 11.5,10 L4.5,10 C4.22385763,10 4,9.77614237 4,9.5 L4,8.5 C4,8.22385763 4.22385763,8 4.5,8 L11.5,8 C11.7761424,8 12,8.22385763 12,8.5 Z"/><path fill-rule="nonzero" d="M12,4.5 L12,5.5 C12,5.77614237 11.7761424,6 11.5,6 L4.5,6 C4.22385763,6 4,5.77614237 4,5.5 L4,4.5 C4,4.22385763 4.22385763,4 4.5,4 L11.5,4 C11.7761424,4 12,4.22385763 12,4.5 Z"/><circle cx="1" cy="1" r="1"/><circle cx="1" cy="5" r="1"/><circle cx="1" cy="9" r="1"/><path fill-rule="nonzero" d="M12,0.5 L12,1.5 C12,1.77614237 11.7761424,2 11.5,2 L4.5,2 C4.22385763,2 4,1.77614237 4,1.5 L4,0.5 C4,0.223857625 4.22385763,5.07265313e-17 4.5,0 L11.5,0 C11.7761424,-5.07265313e-17 12,0.223857625 12,0.5 Z"/></g><path fill="#EEE" d="M13.8541667,0 L22.1666667,8.4 L14.8541667,8.4 C14.3018819,8.4 13.8541667,7.95228475 13.8541667,7.4 L13.8541667,0 L13.8541667,0 Z" transform="translate(3.000000, 0.000000)"/></g></g></g></svg>