<svg xmlns="http://www.w3.org/2000/svg" xmlns:xlink="http://www.w3.org/1999/xlink" width="20" height="20" version="1.1" viewBox="0 0 20 20"><g fill="none" fill-rule="evenodd" stroke="none" stroke-width="1"><g stroke="#B8B9BF" stroke-linecap="round" stroke-width="1.5"><path d="M8,12 L8,12 L2,12 C0.8954305,12 0,11.1045695 0,10 L0,2 C0,0.8954305 0.8954305,0 2,0 L10,0 C11.1045695,0 12,0.8954305 12,2 L12,8 L12,8" transform="translate(2.000000, 4.000000)"/><g transform="translate(2.000000, 4.000000) translate(5.500000, 5.500000)"><line x1="6" x2=".5" y1="6" y2=".5"/><line x1=".5" x2=".5" y1="3.5" y2=".5"/><line x1="2" x2="2" y1="2" y2="-1" transform="translate(2.000000, 0.500000) rotate(90.000000) translate(-2.000000, -0.500000)"/></g></g><g fill="#B8B9BF" transform="translate(16.500000, 4.000000)"><rect width="2" height="2" x="0" y="0" rx=".5"/><rect width="2" height="2" x="0" y="3.5" rx=".5"/><rect width="2" height="2" x="0" y="7" rx=".5"/><rect width="2" height="2" x="0" y="10.5" rx=".5"/></g></g></svg>