<svg xmlns="http://www.w3.org/2000/svg" xmlns:xlink="http://www.w3.org/1999/xlink" width="48" height="48" version="1.1" viewBox="0 0 48 48"><g fill="none" fill-rule="evenodd" stroke="none" stroke-width="1"><rect width="34" height="25" x="7" y="11" fill="#FFF" stroke="#D7D9E0" stroke-width="2" rx="5"/><g transform="translate(17.500000, 17.000000)"><circle cx="6.5" cy="6.5" r="6.5" fill="#37F"/><path fill="#FFF" d="M8.09782911,4.64915963 L10.2881148,8.29963584 C10.4586037,8.58378401 10.3664647,8.95234018 10.0823165,9.12282909 C9.98906728,9.17877863 9.88236544,9.20833333 9.77361906,9.20833333 L5.3930476,9.20833333 C5.06167674,9.20833333 4.79304758,8.93970417 4.79304758,8.60833331 C4.79304758,8.49958694 4.82260228,8.39288509 4.87855183,8.29963584 L7.06883756,4.64915963 C7.23932646,4.36501146 7.60788263,4.27287241 7.8920308,4.44336132 C7.97648056,4.49403118 8.04715925,4.56470986 8.09782911,4.64915963 Z" transform="translate(7.583333, 6.500000) scale(1, -1) rotate(90.000000) translate(-7.583333, -6.500000)"/></g></g></svg>