<svg xmlns="http://www.w3.org/2000/svg" xmlns:xlink="http://www.w3.org/1999/xlink" width="12" height="12" version="1.1" viewBox="0 0 12 12"><g fill="none" fill-rule="evenodd" stroke="none" stroke-width="1"><rect width="12" height="12" x="0" y="0"/><g stroke="#8B8FA3" stroke-linecap="round" stroke-linejoin="round" stroke-width="1.5" transform="translate(3.000000, 3.000000) scale(1, -1) translate(-3.000000, -3.000000) translate(1.125000, 1.125000)"><line x1="3.375" x2="0" y1=".375" y2="3.75" transform="translate(1.687500, 2.062500) scale(-1, 1) rotate(-90.000000) translate(-1.687500, -2.062500)"/><line x1="3.375" x2="3.375" y1=".375" y2="2.625"/><line x1="3.375" x2="1.125" y1=".375" y2=".375"/></g><g stroke="#8B8FA3" stroke-linecap="round" stroke-linejoin="round" stroke-width="1.5" transform="translate(9.062500, 9.062500) scale(1, -1) translate(-9.062500, -9.062500) translate(7.125000, 7.125000)"><line x1="3.875" x2=".5" y1="0" y2="3.375" transform="translate(2.187500, 1.687500) scale(-1, 1) rotate(-90.000000) translate(-2.187500, -1.687500)"/><line x1="2.75" x2=".5" y1="3.375" y2="3.375" transform="translate(1.625000, 3.375000) rotate(0.000000) translate(-1.625000, -3.375000)"/><line x1=".5" x2=".5" y1="1.125" y2="3.375" transform="translate(0.500000, 2.250000) rotate(0.000000) translate(-0.500000, -2.250000)"/></g></g></svg>